<svg width="267" height="162" viewBox="0 0 267 162" fill="none" xmlns="http://www.w3.org/2000/svg">
<path d="M29.5 143.7C29.5 144.333 29.2833 144.883 28.85 145.35C28.4167 145.783 27.8667 146 27.2 146H25.85C25.2167 146 24.6667 145.783 24.2 145.35C23.7667 144.883 23.55 144.333 23.55 143.7V128.65C23.55 128.517 23.4833 128.433 23.35 128.4C23.25 128.367 23.1667 128.4 23.1 128.5L18.3 138.4C18.2 138.667 17.9833 138.9 17.65 139.1C17.3167 139.3 17 139.467 16.7 139.6C16.4333 139.7 16.3 139.75 16.3 139.75C15.2667 139.75 14.5833 139.3 14.25 138.4L9.45 128.5C9.41667 128.4 9.33333 128.367 9.2 128.4C9.06667 128.433 9 128.517 9 128.65V143.7C9 144.333 8.76667 144.883 8.3 145.35C7.86667 145.783 7.33333 146 6.7 146H5.3C4.66667 146 4.11667 145.783 3.65 145.35C3.21667 144.883 3 144.333 3 143.7V114.5C3 113.833 3.21667 113.283 3.65 112.85C4.11667 112.417 4.66667 112.2 5.3 112.2H6.75C7.68333 112.2 8.36667 112.633 8.8 113.5C8.96667 113.867 9.3 114.583 9.8 115.65C10.3333 116.683 10.95 117.917 11.65 119.35C12.35 120.783 13.0667 122.3 13.8 123.9C14.5667 125.467 15.3 126.967 16 128.4C16.0667 128.533 16.15 128.6 16.25 128.6C16.3833 128.6 16.4833 128.533 16.55 128.4L23.7 113.5C24.1333 112.633 24.8333 112.2 25.8 112.2H27.2C27.8667 112.2 28.4167 112.417 28.85 112.85C29.2833 113.283 29.5 113.833 29.5 114.5V143.7ZM51.6664 140.4C51.6664 141.967 51.1164 143.3 50.0164 144.4C48.9497 145.467 47.6497 146 46.1164 146H39.1664C37.6331 146 36.3164 145.467 35.2164 144.4C34.1164 143.3 33.5664 141.967 33.5664 140.4V125.7C33.5664 124.667 33.8164 123.733 34.3164 122.9C34.8497 122.033 35.5331 121.35 36.3664 120.85C37.1997 120.35 38.1331 120.1 39.1664 120.1H46.1164C47.1497 120.1 48.0831 120.35 48.9164 120.85C49.7497 121.35 50.4164 122.033 50.9164 122.9C51.4164 123.733 51.6664 124.667 51.6664 125.7V140.4ZM45.7664 139.45V126.75C45.7664 126.55 45.6831 126.383 45.5164 126.25C45.3831 126.117 45.2331 126.05 45.0664 126.05H40.2164C40.0497 126.05 39.8831 126.117 39.7164 126.25C39.5831 126.383 39.5164 126.55 39.5164 126.75V139.45C39.5164 139.617 39.5831 139.767 39.7164 139.9C39.8831 140.033 40.0497 140.1 40.2164 140.1H45.0664C45.2331 140.1 45.3831 140.033 45.5164 139.9C45.6831 139.767 45.7664 139.617 45.7664 139.45ZM74.1344 123.05L67.9344 144.35C67.801 144.817 67.5177 145.217 67.0844 145.55C66.6844 145.85 66.2177 146 65.6844 146H64.3344C63.801 146 63.3344 145.85 62.9344 145.55C62.5344 145.217 62.251 144.817 62.0844 144.35L55.8844 123.05C55.651 122.283 55.751 121.617 56.1844 121.05C56.7177 120.417 57.3344 120.1 58.0344 120.1H59.4844C60.0177 120.1 60.4844 120.267 60.8844 120.6C61.2844 120.9 61.551 121.3 61.6844 121.8L64.7844 132.3C64.8177 132.433 64.8844 132.5 64.9844 132.5C65.1177 132.5 65.201 132.433 65.2344 132.3L68.3344 121.8C68.501 121.3 68.7677 120.9 69.1344 120.6C69.5344 120.267 70.001 120.1 70.5344 120.1H71.9844C72.7177 120.1 73.3177 120.417 73.7844 121.05C74.2177 121.65 74.3344 122.317 74.1344 123.05ZM85.843 115.4C85.843 116.433 85.4596 117.333 84.693 118.1C83.9596 118.833 83.093 119.2 82.093 119.2C81.0596 119.2 80.1596 118.833 79.393 118.1C78.6596 117.333 78.293 116.433 78.293 115.4C78.293 114.4 78.6596 113.533 79.393 112.8C80.1596 112.033 81.0596 111.65 82.093 111.65C83.093 111.65 83.9596 112.033 84.693 112.8C85.4596 113.533 85.843 114.4 85.843 115.4ZM85.043 143.7C85.043 144.333 84.8096 144.883 84.343 145.35C83.9096 145.783 83.3763 146 82.743 146H81.393C80.7596 146 80.2096 145.783 79.743 145.35C79.3096 144.883 79.093 144.333 79.093 143.7V122.95C79.093 122.317 79.3096 121.783 79.743 121.35C80.2096 120.883 80.7596 120.65 81.393 120.65H82.743C83.3763 120.65 83.9096 120.883 84.343 121.35C84.8096 121.783 85.043 122.317 85.043 122.95V143.7ZM107.965 131.15C107.965 132.15 107.715 133.083 107.215 133.95C106.715 134.783 106.049 135.467 105.215 136C104.382 136.5 103.449 136.75 102.415 136.75H96.5152C96.3486 136.75 96.1819 136.817 96.0152 136.95C95.8819 137.05 95.8152 137.183 95.8152 137.35V139.45C95.8152 139.617 95.8819 139.767 96.0152 139.9C96.1819 140.033 96.3486 140.1 96.5152 140.1H102.415C103.049 140.1 103.582 140.317 104.015 140.75C104.482 141.183 104.715 141.733 104.715 142.4V143.7C104.715 144.333 104.482 144.883 104.015 145.35C103.582 145.783 103.049 146 102.415 146H95.4652C93.9319 146 92.6152 145.467 91.5152 144.4C90.4152 143.3 89.8652 141.967 89.8652 140.4V125.7C89.8652 124.667 90.1152 123.733 90.6152 122.9C91.1486 122.067 91.8319 121.4 92.6652 120.9C93.4986 120.367 94.4319 120.1 95.4652 120.1H102.415C103.449 120.1 104.382 120.367 105.215 120.9C106.049 121.4 106.715 122.067 107.215 122.9C107.715 123.733 107.965 124.667 107.965 125.7V131.15ZM102.065 130.15V126.75C102.065 126.55 101.982 126.383 101.815 126.25C101.682 126.117 101.532 126.05 101.365 126.05H96.5152C96.3486 126.05 96.1819 126.117 96.0152 126.25C95.8819 126.383 95.8152 126.55 95.8152 126.75V130.15C95.8152 130.283 95.8819 130.417 96.0152 130.55C96.1819 130.683 96.3486 130.75 96.5152 130.75H101.365C101.532 130.75 101.682 130.683 101.815 130.55C101.982 130.417 102.065 130.283 102.065 130.15ZM138.533 143.7C138.533 144.333 138.317 144.883 137.883 145.35C137.45 145.783 136.9 146 136.233 146H134.883C134.25 146 133.7 145.783 133.233 145.35C132.8 144.883 132.583 144.333 132.583 143.7V128.65C132.583 128.517 132.517 128.433 132.383 128.4C132.283 128.367 132.2 128.4 132.133 128.5L127.333 138.4C127.233 138.667 127.017 138.9 126.683 139.1C126.35 139.3 126.033 139.467 125.733 139.6C125.467 139.7 125.333 139.75 125.333 139.75C124.3 139.75 123.617 139.3 123.283 138.4L118.483 128.5C118.45 128.4 118.367 128.367 118.233 128.4C118.1 128.433 118.033 128.517 118.033 128.65V143.7C118.033 144.333 117.8 144.883 117.333 145.35C116.9 145.783 116.367 146 115.733 146H114.333C113.7 146 113.15 145.783 112.683 145.35C112.25 144.883 112.033 144.333 112.033 143.7V114.5C112.033 113.833 112.25 113.283 112.683 112.85C113.15 112.417 113.7 112.2 114.333 112.2H115.783C116.717 112.2 117.4 112.633 117.833 113.5C118 113.867 118.333 114.583 118.833 115.65C119.367 116.683 119.983 117.917 120.683 119.35C121.383 120.783 122.1 122.3 122.833 123.9C123.6 125.467 124.333 126.967 125.033 128.4C125.1 128.533 125.183 128.6 125.283 128.6C125.417 128.6 125.517 128.533 125.583 128.4L132.733 113.5C133.167 112.633 133.867 112.2 134.833 112.2H136.233C136.9 112.2 137.45 112.417 137.883 112.85C138.317 113.283 138.533 113.833 138.533 114.5V143.7ZM194.831 115.85C194.831 116.483 194.615 117.033 194.181 117.5C193.748 117.933 193.198 118.15 192.531 118.15H187.281C186.848 118.15 186.631 118.367 186.631 118.8V143.7C186.631 144.333 186.398 144.883 185.931 145.35C185.498 145.783 184.965 146 184.331 146H183.031C182.398 146 181.848 145.783 181.381 145.35C180.948 144.883 180.731 144.333 180.731 143.7V118.8C180.731 118.367 180.515 118.15 180.081 118.15H174.781C174.148 118.15 173.598 117.933 173.131 117.5C172.698 117.033 172.481 116.483 172.481 115.85V114.5C172.481 113.833 172.698 113.283 173.131 112.85C173.598 112.417 174.148 112.2 174.781 112.2H192.531C193.198 112.2 193.748 112.417 194.181 112.85C194.615 113.283 194.831 113.833 194.831 114.5V115.85ZM221.5 142.85C221.833 143.617 221.783 144.317 221.35 144.95C220.85 145.65 220.216 146 219.45 146H217.95C217.516 146 217.083 145.867 216.65 145.6C216.25 145.333 215.966 145 215.8 144.6L211.1 133.35C210.933 132.95 210.633 132.75 210.2 132.75H205.55C205.116 132.75 204.9 132.967 204.9 133.4V143.7C204.9 144.333 204.666 144.883 204.2 145.35C203.766 145.783 203.233 146 202.6 146H201.2C200.566 146 200.033 145.783 199.6 145.35C199.2 144.883 199 144.333 199 143.7V114.5C199 113.833 199.2 113.283 199.6 112.85C200.033 112.417 200.566 112.2 201.2 112.2H214.75C215.95 112.2 217.05 112.5 218.05 113.1C219.05 113.7 219.85 114.5 220.45 115.5C221.05 116.5 221.35 117.617 221.35 118.85V126.15C221.35 127.45 221 128.633 220.3 129.7C219.633 130.733 218.75 131.533 217.65 132.1C217.516 132.133 217.416 132.25 217.35 132.45C217.283 132.617 217.3 132.783 217.4 132.95L221.5 142.85ZM215.4 126.15V118.85C215.4 118.383 215.183 118.15 214.75 118.15H205.55C205.116 118.15 204.9 118.367 204.9 118.8V126.15C204.9 126.583 205.116 126.8 205.55 126.8H214.75C215.183 126.8 215.4 126.583 215.4 126.15ZM257.311 115.6L250.361 128.5C250.195 128.9 250.195 129.283 250.361 129.65L257.311 142.65C257.711 143.417 257.695 144.167 257.261 144.9C256.795 145.633 256.128 146 255.261 146H253.761C252.795 146 252.128 145.6 251.761 144.8L247.011 136C246.978 135.867 246.878 135.8 246.711 135.8C246.578 135.8 246.478 135.867 246.411 136L241.661 144.8C241.528 145.167 241.261 145.467 240.861 145.7C240.495 145.9 240.095 146 239.661 146H238.111C237.278 146 236.628 145.633 236.161 144.9C235.728 144.167 235.711 143.417 236.111 142.65L243.061 129.65C243.228 129.283 243.228 128.9 243.061 128.5L236.111 115.6C235.711 114.767 235.728 114 236.161 113.3C236.628 112.567 237.278 112.2 238.111 112.2H239.661C240.561 112.2 241.228 112.6 241.661 113.4L246.411 122.25C246.478 122.383 246.578 122.45 246.711 122.45C246.845 122.45 246.945 122.383 247.011 122.25L251.761 113.4C252.195 112.6 252.861 112.2 253.761 112.2H255.311C256.145 112.2 256.795 112.567 257.261 113.3C257.695 114 257.711 114.767 257.311 115.6Z" fill="white"/>
<path d="M168.45 143C168.65 143.767 168.533 144.467 168.1 145.1C167.666 145.7 167.05 146 166.25 146H164.8C164.333 146 163.883 145.85 163.45 145.55C163.05 145.25 162.766 144.883 162.6 144.45L160.7 138.7C160.566 138.267 160.283 138.05 159.85 138.05H151.3C150.866 138.05 150.583 138.267 150.45 138.7L148.55 144.45C148.383 144.883 148.1 145.25 147.7 145.55C147.3 145.85 146.85 146 146.35 146H144.9C144.1 146 143.483 145.7 143.05 145.1C142.583 144.433 142.483 143.733 142.75 143L152.45 113.75C152.616 113.283 152.883 112.917 153.25 112.65C153.65 112.35 154.083 112.2 154.55 112.2H156.6C157.066 112.2 157.5 112.35 157.9 112.65C158.3 112.917 158.566 113.283 158.7 113.75L168.45 143ZM158.35 131.5L155.85 123.85C155.683 123.617 155.5 123.617 155.3 123.85L152.8 131.5C152.733 131.667 152.75 131.817 152.85 131.95C152.95 132.083 153.083 132.15 153.25 132.15H157.9C158.066 132.15 158.2 132.083 158.3 131.95C158.4 131.817 158.416 131.667 158.35 131.5ZM231.803 143.7C231.803 144.333 231.569 144.883 231.103 145.35C230.669 145.783 230.136 146 229.503 146H228.153C227.519 146 226.969 145.783 226.503 145.35C226.069 144.883 225.853 144.333 225.853 143.7V114.5C225.853 113.833 226.069 113.283 226.503 112.85C226.969 112.417 227.519 112.2 228.153 112.2H229.503C230.136 112.2 230.669 112.417 231.103 112.85C231.569 113.283 231.803 113.833 231.803 114.5V143.7Z" fill="#00C2FF"/>
<g filter="url(#filter0_f_33_19)">
<rect x="4" y="146" width="253" height="2" fill="url(#paint0_linear_33_19)"/>
</g>
<rect x="60" width="27.0296" height="95.9076" fill="url(#paint1_linear_33_19)"/>
<rect x="180.235" width="27.0296" height="95.9076" fill="url(#paint2_linear_33_19)"/>
<rect width="22.5181" height="74.779" transform="matrix(0.919522 -0.393039 0.854811 0.518939 66.5244 9.32532)" fill="url(#paint3_linear_33_19)"/>
<rect width="22.5181" height="74.0753" transform="matrix(0.919522 0.393039 -0.854811 0.518939 180.176 0.474854)" fill="url(#paint4_linear_33_19)"/>
<rect width="24.8407" height="24.8407" transform="matrix(0.891051 0.453902 -0.891051 0.453902 133.397 28.4874)" fill="url(#paint5_linear_33_19)"/>
<defs>
<filter id="filter0_f_33_19" x="0" y="142" width="261" height="10" filterUnits="userSpaceOnUse" color-interpolation-filters="sRGB">
<feFlood flood-opacity="0" result="BackgroundImageFix"/>
<feBlend mode="normal" in="SourceGraphic" in2="BackgroundImageFix" result="shape"/>
<feGaussianBlur stdDeviation="2" result="effect1_foregroundBlur_33_19"/>
</filter>
<linearGradient id="paint0_linear_33_19" x1="4" y1="147" x2="257" y2="147" gradientUnits="userSpaceOnUse">
<stop stop-color="#00C2FF"/>
<stop offset="1" stop-color="#192F69"/>
</linearGradient>
<linearGradient id="paint1_linear_33_19" x1="73.5148" y1="0" x2="73.5148" y2="95.9076" gradientUnits="userSpaceOnUse">
<stop offset="0.117332" stop-color="#00C2FF"/>
<stop offset="0.860694" stop-color="#283455"/>
</linearGradient>
<linearGradient id="paint2_linear_33_19" x1="193.75" y1="0" x2="193.75" y2="95.9076" gradientUnits="userSpaceOnUse">
<stop offset="0.14742" stop-color="#30384F"/>
<stop offset="0.800517" stop-color="#00C2FF"/>
</linearGradient>
<linearGradient id="paint3_linear_33_19" x1="11.2591" y1="0" x2="11.2591" y2="74.779" gradientUnits="userSpaceOnUse">
<stop offset="0.162861" stop-color="#00C2FF"/>
<stop offset="0.795604" stop-color="#3D4866"/>
</linearGradient>
<linearGradient id="paint4_linear_33_19" x1="11.2591" y1="0" x2="11.2591" y2="74.0753" gradientUnits="userSpaceOnUse">
<stop offset="0.183182" stop-color="#30384E"/>
<stop offset="0.836829" stop-color="#30384E"/>
</linearGradient>
<linearGradient id="paint5_linear_33_19" x1="12.4203" y1="0" x2="12.4203" y2="24.8407" gradientUnits="userSpaceOnUse">
<stop offset="0.092548" stop-color="#00C2FF"/>
<stop offset="0.732382" stop-color="#485473"/>
</linearGradient>
</defs>
</svg>
